<svg width="98" height="98" viewBox="0 0 98 98" fill="none" xmlns="http://www.w3.org/2000/svg">
<g filter="url(#filter0_d_434_341)">
<rect x="6" width="90" height="90" rx="10" fill="#B3E55E"/>
<rect x="7" y="1" width="88" height="88" rx="9" stroke="black" stroke-width="2"/>
</g>
<g clip-path="url(#clip0_434_341)">
<path d="M66.328 49.0021C60.255 49.0021 55.3145 54.1302 55.3145 60.4338C55.3145 66.7374 60.255 71.8655 66.328 71.8655C72.401 71.8655 77.3415 66.7374 77.3415 60.4338C77.3415 54.1302 72.401 49.0021 66.328 49.0021ZM66.328 69.9602C61.2673 69.9602 57.1501 65.6866 57.1501 60.4338C57.1501 55.1809 61.2673 50.9074 66.328 50.9074C71.3887 50.9074 75.5059 55.1809 75.5059 60.4338C75.5059 65.6866 71.3887 69.9602 66.328 69.9602Z" fill="black"/>
<path d="M71.8347 59.4811H67.2458V54.7179C67.2458 54.1911 66.8355 53.7653 66.328 53.7653C65.8205 53.7653 65.4102 54.1911 65.4102 54.7179V60.4338C65.4102 60.9606 65.8205 61.3864 66.328 61.3864H71.8347C72.3423 61.3864 72.7525 60.9606 72.7525 60.4338C72.7525 59.907 72.3423 59.4811 71.8347 59.4811Z" fill="black"/>
<path d="M40.6832 55.7449V33.7598H38.8476L34.2054 36.6178V38.523L38.8476 35.6651V55.7449H40.6832Z" fill="black"/>
<path d="M57.2033 47.7484V40.7513C57.2033 38.806 56.5499 37.157 55.2448 35.8013C53.9388 34.4457 52.3547 33.7684 50.4906 33.7684C48.6266 33.7684 47.0425 34.4457 45.7374 35.8013C44.4314 37.157 43.7789 38.8003 43.7789 40.7351C43.7789 42.6699 44.4314 44.3141 45.7374 45.6698C47.0425 47.0254 48.6587 47.7027 50.5852 47.7027C52.5116 47.7027 54.1379 46.9596 55.4641 45.4726V47.5188C55.4641 49.5737 54.885 51.1303 53.7268 52.1906C52.5685 53.2499 51.2001 53.7805 49.6206 53.7805H48.9414V55.5839H49.4948C50.9055 55.5839 52.1371 55.3267 53.1899 54.8132C54.2426 54.2997 55.0429 53.6386 55.5899 52.8298C56.6664 51.256 57.2033 49.5622 57.2033 47.7484ZM54.0287 44.4066C53.0705 45.4011 51.8967 45.8974 50.5072 45.8974C49.1167 45.8974 47.9374 45.4011 46.97 44.4066C46.0008 43.412 45.5171 42.1936 45.5171 40.7513C45.5171 39.308 46.0008 38.0848 46.97 37.0798C47.9383 36.0748 49.1121 35.5718 50.4916 35.5718C51.871 35.5718 53.0448 36.0586 54.0131 37.0303C54.9823 38.0029 55.466 39.227 55.466 40.7017C55.466 42.1764 54.9869 43.412 54.0287 44.4066Z" fill="black"/>
<path d="M49.8078 60.4338H25.9453V28.9966H39.7121H41.5477H54.3967H56.2323H69.0814V44.2389C69.0814 44.7657 69.4916 45.1915 69.9991 45.1915C70.5067 45.1915 70.9169 44.7657 70.9169 44.2389V28.9966V28.044V17.5649H56.2323H54.3967H41.5477H39.7121H24.1097V28.044V28.9966V61.3864C24.1097 61.9132 24.52 62.3391 25.0275 62.3391H49.8078C50.3153 62.3391 50.7256 61.9132 50.7256 61.3864C50.7256 60.8596 50.3153 60.4338 49.8078 60.4338ZM56.2323 19.4702H69.0814V27.0914H56.2323V19.4702ZM41.5477 19.4702H54.3967V27.0914H41.5477V19.4702ZM25.9453 19.4702H39.7121V27.0914H25.9453V19.4702Z" fill="black"/>
</g>
<defs>
<filter id="filter0_d_434_341" x="0" y="0" width="98" height="98" filterUnits="userSpaceOnUse" color-interpolation-filters="sRGB">
<feFlood flood-opacity="0" result="BackgroundImageFix"/>
<feColorMatrix in="SourceAlpha" type="matrix" values="0 0 0 0 0 0 0 0 0 0 0 0 0 0 0 0 0 0 127 0" result="hardAlpha"/>
<feOffset dx="-2" dy="4"/>
<feGaussianBlur stdDeviation="2"/>
<feComposite in2="hardAlpha" operator="out"/>
<feColorMatrix type="matrix" values="0 0 0 0 0 0 0 0 0 0 0 0 0 0 0 0 0 0 0.25 0"/>
<feBlend mode="normal" in2="BackgroundImageFix" result="effect1_dropShadow_434_341"/>
<feBlend mode="normal" in="SourceGraphic" in2="effect1_dropShadow_434_341" result="shape"/>
</filter>
<clipPath id="clip0_434_341">
<rect width="53.2317" height="55.2532" fill="white" transform="translate(24.1097 17.0886)"/>
</clipPath>
</defs>
</svg>
