<svg width="260" height="416" viewBox="0 0 260 416" fill="none" xmlns="http://www.w3.org/2000/svg">
<g filter="url(#filter0_f_512_101)">
<path fill-rule="evenodd" clip-rule="evenodd" d="M125.816 9.61259C93.2242 9.61259 61.0516 13.6012 28.9806 21.5785L27.7987 35.7603L25.4351 38.1239L25.2135 39.6012H25.1396V39.9705L24.2533 45.7319L23.3669 45.5103L21.8896 48.4648L22.4067 48.5757L22.2958 49.1296L21.5941 49.6466V50.7916C20.9899 51.2257 20.597 51.9372 20.597 52.7489L8.81561 68.0393C8.81561 68.0647 8.81485 68.0878 8.81561 68.1131C8.58875 68.4821 8.44629 68.9366 8.44629 69.4058V84.6962C8.44629 86.0261 9.5027 87.0967 10.8099 87.0967H33.9287L55.1282 373.203C55.1282 384.777 64.4574 394.107 76.0321 394.107H184.723C194.528 394.107 202.657 387.128 204.703 377.784C204.482 378.302 204.223 378.803 203.964 379.297C204.152 378.678 204.313 378.057 204.444 377.415C204.722 376.052 204.85 374.651 204.85 373.204L222.319 108.181C222.373 108.386 222.421 108.6 222.467 108.809L223.685 87.0933H249.612C250.919 87.0933 251.975 86.0226 251.975 84.6927V69.4024C251.975 69.271 251.959 69.1583 251.939 69.0331V68.7376H251.864C251.648 68.0002 251.101 67.4022 250.387 67.1495L236.685 56.0331L236.76 55.9962L235.541 55.073L233.805 53.6695L232.696 49.09L233.731 48.7577L232.217 47.0958L231.071 42.2577V36.9395L229.299 35.1668L225.162 21.5759C191.421 13.5986 158.409 9.60999 125.816 9.60999V9.61259Z" fill="black"/>
<g clip-path="url(#clip0_512_101)">
<path d="M86.9812 120.94C82.01 121.235 78.5013 122.994 76.5537 126.214L63.7619 148.403L72.31 153.314L50.3031 156.042L57.0325 159.922L51.1519 169.925C49.9166 172.062 49.2043 176.851 51.5156 180.352C52.4326 181.739 55.388 187.029 58.0025 191.689C60.2608 195.713 62.3751 199.502 63.3375 201.086C64.4591 202.609 65.5655 204.11 65.7019 204.299C65.7095 204.299 63.2238 200.124 67.6419 192.477L79.1 172.653L85.8294 176.533L77.2206 156.163L85.7687 161.074L104.077 129.367C107.783 122.448 110.746 121.251 111.413 121.061C111.747 121.061 112.019 121.061 112.322 121.061C112.065 121.054 111.8 120.993 111.534 121.001C111.375 121.001 111.209 120.993 111.049 121.001C108.344 121.054 103.668 121.038 98.015 121.001C94.6579 120.978 90.9749 120.948 86.9812 120.94ZM113.959 121.243C112.8 121.804 110.292 123.645 107.23 129.367L100.197 141.552L104.32 148.767L97.5906 152.707L119.537 155.375L110.989 160.286L122.083 179.504H136.512C142.582 179.504 145.598 177.549 146.879 176.291C147.235 173.911 146.871 171.706 145.787 169.743L132.996 147.615L124.447 152.526L133.117 132.156L126.387 136.036L120.628 125.972C119.651 124.274 117.082 121.978 113.959 121.243ZM112.383 174.714L99.0456 192.417V182.535H76.8569L69.6425 195.024C66.6112 200.283 66.831 203.89 67.2781 205.633C69.1651 207.134 71.2187 207.952 73.4619 207.997H99.0456V198.055L112.383 215.757V207.997L123.963 208.058C126.433 208.058 130.934 206.361 132.814 202.602C133.556 201.117 136.694 195.857 139.422 191.265C141.779 187.294 143.984 183.558 144.878 181.929C145.644 180.193 146.356 178.503 146.454 178.291C146.454 178.291 144.128 182.535 135.299 182.535H112.383V174.714Z" fill="white"/>
</g>
</g>
<path d="M186.335 81.7039H78.3947C66.8563 81.7039 57.5026 91.0576 57.5026 102.596V368.474C57.5026 380.013 66.8563 389.367 78.3947 389.367H186.335C197.873 389.367 207.227 380.013 207.227 368.474V102.596C207.227 91.0576 197.873 81.7039 186.335 81.7039Z" fill="#FF0000"/>
<path fill-rule="evenodd" clip-rule="evenodd" d="M226.129 81.3232L207.22 368.481C207.22 380.056 197.903 389.374 186.328 389.374H78.39C66.816 389.374 57.4978 380.056 57.4978 368.481L36.2251 81.3232H226.131H226.129Z" fill="#77AB28"/>
<path fill-rule="evenodd" clip-rule="evenodd" d="M220.185 81.3232L202.617 364.971C202.617 376.404 193.96 385.608 183.208 385.608H82.9293C72.1766 385.608 63.5203 376.404 63.5203 364.971L48.4841 81.3232H220.179H220.185Z" fill="#5B9F2E"/>
<path fill-rule="evenodd" clip-rule="evenodd" d="M39.7611 81.3339L60.6368 368.48C60.6368 380.055 69.7919 389.384 81.1496 389.384H187.085C196.891 389.384 205.009 382.406 207.055 373.061C204.037 380.128 197.487 385.027 189.804 385.027L85.6074 385.618C75.0554 385.618 66.5435 376.405 66.5435 364.973L49.725 95.2226C53.7758 89.933 61.1257 90.056 73.8282 89.609C106.45 88.4712 153.31 89.0016 188.862 89.1658C209.332 89.2603 222.569 93.7526 224.814 104.086L226.118 81.3362H39.7576L39.7611 81.3339Z" fill="#1D6128"/>
<path fill-rule="evenodd" clip-rule="evenodd" d="M25.3216 45.6206C24.0189 45.6206 22.958 46.6912 22.958 48.0211L11.1767 63.3115C11.1767 63.3369 11.176 63.3601 11.1767 63.3853C10.9498 63.7543 10.8074 64.2088 10.8074 64.678V79.9684C10.8074 81.2983 11.8638 82.3689 13.171 82.3689H251.97C253.277 82.3689 254.333 81.2983 254.333 79.9684V64.678C254.333 63.6266 253.667 62.7515 252.745 62.4252L235.018 48.0212C235.018 46.6913 233.956 45.6207 232.654 45.6207H25.3156L25.3216 45.6206Z" fill="#5B9F2E"/>
<path d="M254.288 64.0203H10.9167V67.5657H254.288V64.0203Z" fill="white"/>
<path fill-rule="evenodd" clip-rule="evenodd" d="M23.0679 52.2907L44.3407 58.1998L219.841 56.4271L236.977 52.2907L233.432 37.518V32.1998L231.659 30.4271L227.522 16.8362C155.025 5.05998 97.1561 5.05998 31.3407 16.8362L30.1588 31.018L27.7952 33.3816L26.6134 41.0634L24.8407 43.4271L23.0679 52.2907Z" fill="#5B9E2D"/>
<path fill-rule="evenodd" clip-rule="evenodd" d="M23.9543 51.9953L44.9316 56.7225L44.6361 37.2225L233.136 36.6316L232.841 33.9725L27.4997 34.8589L27.7952 41.9498L23.9543 44.9044V51.9953Z" fill="#1F582D"/>
<path fill-rule="evenodd" clip-rule="evenodd" d="M24.2498 43.7225L44.3407 48.1543L222.5 48.4498L236.091 44.0179L233.432 41.0634L222.5 45.1998H44.0452L25.727 40.7679L24.2498 43.7225Z" fill="white"/>
<path fill-rule="evenodd" clip-rule="evenodd" d="M31.3406 19.4952C34.5906 19.1998 227.227 18.9043 227.227 18.9043L226.636 17.1316H31.6361L31.3406 19.4952Z" fill="white"/>
<path fill-rule="evenodd" clip-rule="evenodd" d="M23.9519 53.0731L45.0722 57.6094L222.499 57.9049L239.118 51.2794L236.146 49.056L222.499 54.6549H45.0721L23.9518 49.8053V53.0733L23.9519 53.0731Z" fill="#282828"/>
<g clip-path="url(#clip1_512_101)">
<path d="M121.981 161.94C117.01 162.235 113.501 163.994 111.554 167.214L98.7619 189.403L107.31 194.314L85.3031 197.042L92.0325 200.922L86.1519 210.925C84.9166 213.062 84.2043 217.851 86.5156 221.352C87.4326 222.739 90.388 228.029 93.0025 232.689C95.2608 236.713 97.3751 240.502 98.3375 242.086C99.4591 243.609 100.565 245.11 100.702 245.299C100.709 245.299 98.2238 241.124 102.642 233.477L114.1 213.653L120.829 217.533L112.221 197.163L120.769 202.074L139.077 170.367C142.783 163.448 145.746 162.251 146.413 162.061C146.747 162.061 147.019 162.061 147.322 162.061C147.065 162.054 146.8 161.993 146.534 162.001C146.375 162.001 146.209 161.993 146.049 162.001C143.344 162.054 138.668 162.038 133.015 162.001C129.658 161.978 125.975 161.948 121.981 161.94ZM148.959 162.243C147.8 162.804 145.292 164.645 142.23 170.367L135.197 182.552L139.32 189.767L132.591 193.707L154.537 196.375L145.989 201.286L157.083 220.504H171.512C177.582 220.504 180.598 218.549 181.879 217.291C182.235 214.911 181.871 212.706 180.787 210.743L167.996 188.615L159.447 193.526L168.117 173.156L161.387 177.036L155.628 166.972C154.651 165.274 152.082 162.978 148.959 162.243ZM147.383 215.714L134.046 233.417V223.535H111.857L104.642 236.024C101.611 241.283 101.831 244.89 102.278 246.633C104.165 248.134 106.219 248.952 108.462 248.997H134.046V239.055L147.383 256.757V248.997L158.963 249.058C161.433 249.058 165.934 247.361 167.814 243.602C168.556 242.117 171.694 236.857 174.422 232.265C176.779 228.294 178.984 224.558 179.878 222.929C180.644 221.193 181.356 219.503 181.454 219.291C181.454 219.291 179.128 223.535 170.299 223.535H147.383V215.714Z" fill="white"/>
</g>
<defs>
<filter id="filter0_f_512_101" x="3.13223" y="4.29593" width="254.157" height="395.125" filterUnits="userSpaceOnUse" color-interpolation-filters="sRGB">
<feFlood flood-opacity="0" result="BackgroundImageFix"/>
<feBlend mode="normal" in="SourceGraphic" in2="BackgroundImageFix" result="shape"/>
<feGaussianBlur stdDeviation="2.65703" result="effect1_foregroundBlur_512_101"/>
</filter>
<clipPath id="clip0_512_101">
<rect width="97" height="97" fill="white" transform="translate(50 119)"/>
</clipPath>
<clipPath id="clip1_512_101">
<rect width="97" height="97" fill="white" transform="translate(85 160)"/>
</clipPath>
</defs>
</svg>
