<svg width="98" height="98" viewBox="0 0 98 98" fill="none" xmlns="http://www.w3.org/2000/svg">
<g filter="url(#filter0_d_434_355)">
<rect x="7" y="1" width="88" height="88" rx="9" fill="#B3E55E" stroke="black" stroke-width="2"/>
<path d="M26.3495 48.5532C24.9292 47.6406 24.6585 46.2463 24.6585 45.3181C24.6585 42.9008 26.5563 40.1962 29.0945 40.1962H41.5099C41.9553 40.1907 44.1768 40.0333 44.1768 37.4336C44.1768 36.9253 44.5733 36.5127 45.0639 36.5127C45.5546 36.5127 45.9511 36.9253 45.9511 37.4336C45.9511 41.0756 43.049 42.038 41.5151 42.038H29.0943C27.6199 42.038 26.4328 43.8328 26.4328 45.3183C26.4328 45.7971 26.4328 47.2549 29.191 47.5689C29.6595 47.6223 30.0055 48.0458 29.9797 48.5348C29.9549 49.0229 29.5654 49.405 29.0943 49.405C27.6269 49.405 26.4328 50.6446 26.4328 52.1677C26.4328 53.6908 27.6269 54.9304 29.0943 54.9304H30.8688C31.3594 54.9304 31.7559 55.3429 31.7559 55.8512C31.7559 56.3595 31.3594 56.7721 30.8688 56.7721C29.4014 56.7721 28.2072 58.0116 28.2072 59.5347C28.2072 61.0579 29.4014 62.2974 30.8688 62.2974H33.5303C34.021 62.2974 34.4175 62.7099 34.4175 63.2182C34.4175 63.7265 34.021 64.1391 33.5303 64.1391C32.6015 64.1391 31.7559 65.0167 31.7559 65.9809C31.7559 66.91 32.6342 67.8227 33.5303 67.8227H46.8383C50.5423 67.8227 51.8749 67.0593 53.4186 66.1761C54.7237 65.4292 56.2035 64.5829 59.133 64.1484C59.6184 64.0756 60.0681 64.4265 60.1374 64.9292C60.2066 65.433 59.8703 65.8998 59.385 65.9717C56.7749 66.3585 55.5044 67.086 54.2748 67.7896C52.6636 68.7114 50.9993 69.6645 46.8384 69.6645H33.5305C31.6726 69.6645 29.9817 67.9084 29.9817 65.981C29.9817 65.3088 30.1662 64.6715 30.4839 64.1217C28.218 63.9191 26.433 61.9392 26.433 59.5347C26.433 58.3661 26.8553 57.297 27.5491 56.4838C25.8625 55.8309 24.6585 54.143 24.6585 52.1677C24.6585 50.7035 25.3204 49.3967 26.3495 48.5532Z" fill="black"/>
<path d="M69.9055 65.0599C68.927 65.0599 68.1311 64.234 68.1311 63.2181C68.1311 62.2023 68.927 61.3764 69.9055 61.3764C70.8841 61.3764 71.6799 62.2024 71.6799 63.2182C71.6799 64.2341 70.8841 65.0599 69.9055 65.0599Z" fill="black"/>
<path d="M59.2591 43.8797C56.6232 43.8797 53.2884 40.826 51.5343 39.0055C47.7255 35.0521 47.7255 30.1383 47.7255 22.6993C47.7255 22.1228 47.3938 21.7785 46.8384 21.7785C43.7705 21.7785 42.4024 23.1984 42.4024 26.3829V37.4336C42.4024 37.9419 42.0058 38.3544 41.5152 38.3544C41.0246 38.3544 40.628 37.9419 40.628 37.4336V26.3829C40.628 22.1652 42.7759 19.9368 46.8384 19.9368C48.3803 19.9368 49.5 21.0989 49.5 22.6994C49.5 29.9274 49.5 34.2897 52.7888 37.7035C55.3644 40.3767 57.844 42.0379 59.2591 42.0379C59.7498 42.0379 60.1463 42.4505 60.1463 42.9588C60.1463 43.4671 59.7498 43.8797 59.2591 43.8797Z" fill="black"/>
<path d="M62.8079 40.1961H77.0031C77.4937 40.1961 77.8903 40.6086 77.8903 41.1169V68.7435C77.8903 69.2518 77.4937 69.6643 77.0031 69.6643H62.808C62.3174 69.6643 61.9209 69.2518 61.9209 68.7435V41.1169C61.9207 40.6086 62.3173 40.1961 62.8079 40.1961ZM63.6952 67.8226H76.1158V42.0379H63.6951V67.8226H63.6952Z" fill="black"/>
</g>
<defs>
<filter id="filter0_d_434_355" x="0" y="0" width="98" height="98" filterUnits="userSpaceOnUse" color-interpolation-filters="sRGB">
<feFlood flood-opacity="0" result="BackgroundImageFix"/>
<feColorMatrix in="SourceAlpha" type="matrix" values="0 0 0 0 0 0 0 0 0 0 0 0 0 0 0 0 0 0 127 0" result="hardAlpha"/>
<feOffset dx="-2" dy="4"/>
<feGaussianBlur stdDeviation="2"/>
<feComposite in2="hardAlpha" operator="out"/>
<feColorMatrix type="matrix" values="0 0 0 0 0 0 0 0 0 0 0 0 0 0 0 0 0 0 0.25 0"/>
<feBlend mode="normal" in2="BackgroundImageFix" result="effect1_dropShadow_434_355"/>
<feBlend mode="normal" in="SourceGraphic" in2="effect1_dropShadow_434_355" result="shape"/>
</filter>
</defs>
</svg>
