<svg width="98" height="98" viewBox="0 0 98 98" fill="none" xmlns="http://www.w3.org/2000/svg">
<g filter="url(#filter0_d_434_393)">
<rect x="4" width="90" height="90" rx="10" fill="#B3E55E"/>
<rect x="5" y="1" width="88" height="88" rx="9" stroke="black" stroke-width="2"/>
</g>
<g clip-path="url(#clip0_434_393)">
<path d="M57.5965 50.2404C66.4016 50.2404 73.5655 42.8044 73.5655 33.665C73.5655 24.5255 66.4016 17.0895 57.5965 17.0895C48.7914 17.0895 41.6274 24.5255 41.6274 33.665C41.6274 42.8044 48.7914 50.2404 57.5965 50.2404ZM57.5965 18.9311C65.4231 18.9311 71.7912 25.541 71.7912 33.6648C71.7912 41.7887 65.4231 48.3986 57.5965 48.3986C49.7699 48.3986 43.4018 41.7887 43.4018 33.6648C43.4018 25.541 49.7699 18.9311 57.5965 18.9311Z" fill="black"/>
<path d="M57.5965 38.2692C56.618 38.2692 55.8221 37.4432 55.8221 36.4274C55.8221 35.9191 55.4256 35.5066 54.935 35.5066C54.4444 35.5066 54.0479 35.9191 54.0479 36.4274C54.0479 38.1384 55.1825 39.5684 56.7094 39.9801V40.1109C56.7094 40.6192 57.1059 41.0318 57.5965 41.0318C58.0871 41.0318 58.4836 40.6192 58.4836 40.1109V39.9801C60.0105 39.5686 61.1451 38.1384 61.1451 36.4274C61.1451 34.396 59.5535 32.744 57.5965 32.744C56.618 32.744 55.8221 31.9181 55.8221 30.9023C55.8221 29.8866 56.6179 29.0605 57.5965 29.0605C58.575 29.0605 59.3709 29.8865 59.3709 30.9023C59.3709 31.4105 59.7674 31.8231 60.258 31.8231C60.7486 31.8231 61.1451 31.4105 61.1451 30.9023C61.1451 29.1913 60.0105 27.7612 58.4836 27.3495V27.2188C58.4836 26.7105 58.0871 26.2979 57.5965 26.2979C57.1059 26.2979 56.7094 26.7105 56.7094 27.2188V27.3495C55.1825 27.7611 54.0479 29.1913 54.0479 30.9023C54.0479 32.9337 55.6395 34.5857 57.5965 34.5857C58.575 34.5857 59.3709 35.4116 59.3709 36.4274C59.3709 37.4432 58.5751 38.2692 57.5965 38.2692Z" fill="black"/>
<path d="M57.5964 46.5569C64.4454 46.5569 70.0168 40.7739 70.0168 33.6648C70.0168 26.5557 64.4455 20.7729 57.5964 20.7729C50.7474 20.7729 45.1761 26.5558 45.1761 33.665C45.1761 40.7741 50.7475 46.5569 57.5964 46.5569ZM57.5964 22.6146C63.4668 22.6146 68.2425 27.5716 68.2425 33.665C68.2425 39.7583 63.4668 44.7153 57.5964 44.7153C51.7261 44.7153 46.9504 39.7583 46.9504 33.665C46.9504 27.5716 51.7261 22.6146 57.5964 22.6146Z" fill="black"/>
<path d="M26.5457 66.3554C26.5457 65.5939 25.9486 64.9741 25.2149 64.9741C24.4812 64.9741 23.8842 65.5939 23.8842 66.3554C23.8842 67.117 24.4812 67.7367 25.2149 67.7367C25.9486 67.7367 26.5457 67.117 26.5457 66.3554Z" fill="black"/>
<path d="M74.8643 55.7656C73.8858 54.0058 71.7078 53.4036 70.0719 54.3871L59.8615 59.5458C58.2743 60.3699 56.6721 60.3699 53.1607 60.3699C49.7283 60.3699 44.4877 59.4702 44.4345 59.4619C43.9519 59.3781 43.4941 59.717 43.4143 60.218C43.3335 60.7199 43.6601 61.195 44.1435 61.2779C44.3635 61.3165 49.58 62.2117 53.1607 62.2117C56.8442 62.2117 58.6931 62.2117 60.6458 61.1978L70.9041 56.0125C71.3139 55.7667 71.7912 55.7013 72.2509 55.8283C72.7078 55.9563 73.091 56.2611 73.327 56.6865C73.5648 57.1129 73.6278 57.6092 73.5053 58.0844C73.3829 58.5597 73.0892 58.9565 72.6536 59.218L60.6582 66.9671C60.6334 66.9845 58.0739 68.6577 52.2737 68.6577C47.2444 68.6577 39.4745 64.2137 39.3627 64.1501C39.2819 64.1096 37.3585 63.1326 33.6431 63.1326C33.1525 63.1326 32.756 63.5451 32.756 64.0534C32.756 64.5617 33.1525 64.9742 33.6431 64.9742C36.8698 64.9742 38.5323 65.78 38.5358 65.78V65.7791C38.8712 65.9724 46.7847 70.4994 52.2737 70.4994C58.6791 70.4994 61.5197 68.584 61.6138 68.5186L73.5657 60.7972C74.3863 60.3055 74.9736 59.5108 75.2186 58.5614C75.465 57.61 75.3381 56.6173 74.8643 55.7656Z" fill="black"/>
<path d="M33.6429 52.0821H40.7403C41.7755 52.0821 43.5348 53.4523 45.0874 54.6604C47.0338 56.1762 48.8729 57.6072 50.4991 57.6072H55.8221C57.1697 57.6072 57.8386 58.2416 57.8564 58.2583C58.0294 58.4378 58.2565 58.528 58.4836 58.528C58.7107 58.528 58.9378 58.4378 59.1108 58.2583C59.4576 57.8981 59.4576 57.3162 59.1108 56.9562C58.9937 56.8347 57.9043 55.7655 55.8221 55.7655H50.4991C49.4638 55.7655 47.7045 54.3952 46.152 53.1871C44.2055 51.6713 42.3664 50.2403 40.7403 50.2403H33.6429C33.1523 50.2403 32.7557 50.6529 32.7557 51.1611C32.7557 51.6694 33.1523 52.0821 33.6429 52.0821Z" fill="black"/>
<path d="M28.3199 46.5569H22.9969C22.5063 46.5569 22.1097 46.9695 22.1097 47.4777C22.1097 47.986 22.5063 48.3986 22.9969 48.3986H28.3199C28.8096 48.3986 29.207 48.812 29.207 49.3194V69.5782C29.207 70.0856 28.8096 70.4991 28.3199 70.4991H22.9969C22.5063 70.4991 22.1097 70.9116 22.1097 71.4199C22.1097 71.9282 22.5063 72.3407 22.9969 72.3407H28.3199C29.7873 72.3407 30.9814 71.1012 30.9814 69.5781V49.3195C30.9814 47.7964 29.7873 46.5569 28.3199 46.5569Z" fill="black"/>
</g>
<defs>
<filter id="filter0_d_434_393" x="0" y="0" width="98" height="98" filterUnits="userSpaceOnUse" color-interpolation-filters="sRGB">
<feFlood flood-opacity="0" result="BackgroundImageFix"/>
<feColorMatrix in="SourceAlpha" type="matrix" values="0 0 0 0 0 0 0 0 0 0 0 0 0 0 0 0 0 0 127 0" result="hardAlpha"/>
<feOffset dy="4"/>
<feGaussianBlur stdDeviation="2"/>
<feComposite in2="hardAlpha" operator="out"/>
<feColorMatrix type="matrix" values="0 0 0 0 0 0 0 0 0 0 0 0 0 0 0 0 0 0 0.25 0"/>
<feBlend mode="normal" in2="BackgroundImageFix" result="effect1_dropShadow_434_393"/>
<feBlend mode="normal" in="SourceGraphic" in2="effect1_dropShadow_434_393" result="shape"/>
</filter>
<clipPath id="clip0_434_393">
<rect width="53.2317" height="55.2532" fill="white" transform="translate(22.1097 17.0886)"/>
</clipPath>
</defs>
</svg>
