<svg xmlns="http://www.w3.org/2000/svg" xmlns:xlink="http://www.w3.org/1999/xlink" viewBox="0,0,256,256" width="50px" height="50px"><g transform="translate(25.6,25.6) scale(0.8,0.8)"><g fill="#b3e55e" fill-rule="nonzero" stroke="none" stroke-width="1" stroke-linecap="butt" stroke-linejoin="miter" stroke-miterlimit="10" stroke-dasharray="" stroke-dashoffset="0" font-family="none" font-weight="none" font-size="none" text-anchor="none" style="mix-blend-mode: normal"><path d="M-32,288v-320h320v320z" id="bgRectangle"></path></g><g fill="none" fill-rule="nonzero" stroke="#111111" stroke-width="5.12" stroke-linecap="butt" stroke-linejoin="miter" stroke-miterlimit="10" stroke-dasharray="" stroke-dashoffset="0" font-family="none" font-weight="none" font-size="none" text-anchor="none" style="mix-blend-mode: normal"><path d="M-12.95536,284.61707c-8.64972,0 -15.66171,-7.01199 -15.66171,-15.66171v-281.91073c0,-8.64972 7.01199,-15.66171 15.66171,-15.66171h281.91073c8.64972,0 15.66171,7.01199 15.66171,15.66171v281.91073c0,8.64972 -7.01199,15.66171 -15.66171,15.66171z" id="shape"></path></g><g fill="#000000" fill-rule="nonzero" stroke="none" stroke-width="1" stroke-linecap="butt" stroke-linejoin="miter" stroke-miterlimit="10" stroke-dasharray="" stroke-dashoffset="0" font-family="none" font-weight="none" font-size="none" text-anchor="none" style="mix-blend-mode: normal"><g transform="translate(-2.25108,258.22892) rotate(-90) scale(5.12,5.12)"><path d="M19.0625,1c-1.54297,0.08984 -4.04687,0.52734 -5.375,2.71875l-6.09375,10.5625l-0.5,0.875l0.875,0.5l3.53125,2.03125l-8.34375,1.03125l-2.96875,0.34375l2.5625,1.5l0.90625,0.53125l-3.03125,5.125c-0.37891,0.65625 -0.60156,1.48828 -0.625,2.4375c-0.02344,0.94922 0.16406,2.03516 0.78125,2.96875c0.38281,0.58203 1.80078,3.08594 3.15625,5.5c1.26563,2.25391 2.41406,4.27344 2.96875,5.15625c0.03516,0.10156 0.08984,0.19531 0.15625,0.28125c0.00781,0.01172 0.02344,0.01953 0.03125,0.03125c0.85547,1.28516 2.45703,3.19922 5,3.25h13.1875v-5.0625l5.0625,6.71875l1.8125,2.375v-4.03125l5.96875,0.09375c0.75781,0 1.57422,-0.26562 2.40625,-0.71875c0.83203,-0.45312 1.65625,-1.125 2.15625,-2.125c0.3125,-0.625 1.77734,-3.12109 3.1875,-5.5c1.33984,-2.25781 2.58984,-4.32031 3.0625,-5.21875c0.05078,-0.06641 0.09375,-0.14062 0.125,-0.21875c0.00391,-0.00781 -0.00391,-0.02344 0,-0.03125c0.69141,-1.38281 1.53906,-3.70703 0.3125,-5.9375v-0.03125l-6.09375,-10.5625l-0.5,-0.84375l-0.875,0.5l-3.5,2.03125l3.25,-7.75l1.1875,-2.75l-2.59375,1.5l-0.875,0.5l-2.9375,-5.1875h-0.03125c-0.37891,-0.65625 -0.97266,-1.25781 -1.78125,-1.75c-0.79297,-0.48437 -1.78516,-0.85937 -2.875,-0.8125c-0.01172,0 -0.01953,0 -0.03125,0c-0.02734,0 -0.09766,0 -0.125,0c-2.09375,0.04688 -6.95703,-0.01172 -12.46875,-0.03125zM19.09375,3c0.02734,0 0.03516,0 0.0625,0c3.64063,0.01172 5.79688,0.02344 8.28125,0.03125c-0.44922,0.4375 -0.99219,0.8125 -1.28125,1.3125l-1.90625,3.3125l-0.03125,0.0625c-0.05078,0.06641 -0.09375,0.14063 -0.125,0.21875l-6.375,11.03125l-7.90625,-4.5625l5.59375,-9.65625c0.78125,-1.29297 2.40234,-1.66797 3.6875,-1.75zM31.625,3.03125c0.04297,0.00391 0.08203,0.00391 0.125,0c0.01172,0 0.01953,0 0.03125,0c0.58203,-0.03516 1.23438,0.19531 1.78125,0.53125c0.54688,0.33594 0.99609,0.80859 1.125,1.03125l3.4375,6.0625l0.5,0.875l0.0625,-0.03125l-2.28125,5.3125l-5.6875,-0.6875l0.03125,-0.03125l-0.5,-0.875l-4.03125,-7l1.65625,-2.875c0.62891,-1.08984 2.18359,-2.27344 3.75,-2.3125zM25.0625,10.25l2.9375,5.09375l-0.875,0.53125l-2.59375,1.5l2.96875,0.34375l8.34375,1.03125l-3.5625,2.03125l-0.84375,0.5l0.5,0.875l6.09375,10.59375h-5.875v-4.03125l-1.8125,2.40625l-5.0625,6.71875v-5.09375h-13.21875l2.9375,-5.125l0.90625,0.53125l2.59375,1.5l-1.1875,-2.75l-3.3125,-7.78125l3.5625,2.0625l0.875,0.5l0.5,-0.84375zM42.0625,17.46875l5.5625,9.65625c0.73828,1.34375 0.20313,3 -0.375,4.15625c0,0.00391 0,0.02734 0,0.03125c0,0.00391 -0.03125,0.02734 -0.03125,0.03125c0,0.01172 0,0.01953 0,0.03125c-0.19141,0.36719 -0.61719,0.71094 -1.21875,0.96875c-0.62891,0.26953 -1.40625,0.40625 -2.03125,0.40625h-3.59375l-6.21875,-10.71875zM12.0625,19.625l2.21875,5.28125l-0.5,0.875l-4.125,7.125c-0.26172,0.17578 -0.42187,0.46484 -0.4375,0.78125l-1.84375,3.1875c-0.22656,0.39453 -0.3125,0.91016 -0.46875,1.375c-0.48047,-0.84766 -0.67969,-1.16406 -1.21875,-2.125c-1.35547,-2.41406 -2.69922,-4.78516 -3.25,-5.625c-0.32031,-0.48828 -0.45312,-1.14062 -0.4375,-1.78125c0.01563,-0.62891 0.21484,-1.23437 0.34375,-1.46875c0.00391,-0.00391 -0.00391,-0.02734 0,-0.03125l3.53125,-6l0.53125,-0.875l-0.03125,-0.03125zM45.375,34.46875c-0.49219,0.83594 -0.66016,1.15234 -1.21875,2.09375c-1.41406,2.37891 -2.80078,4.72656 -3.25,5.625c-0.26172,0.52344 -0.75,0.97266 -1.3125,1.28125c-0.5625,0.30859 -1.21094,0.46875 -1.46875,0.46875l-6.96875,-0.09375h-1v0.09375l-3.5,-4.625l3.5,-4.625v0.0625h13.8125c0.44922,0 0.92969,-0.1875 1.40625,-0.28125zM10.90625,34.75h12.375v9.09375h-11.15625c-0.01172,0 -0.01953,0 -0.03125,0c-1.51562,-0.04687 -2.66406,-1.30078 -3.375,-2.375c0,-0.01172 0,-0.01953 0,-0.03125c-0.24609,-0.34375 -0.36328,-0.91406 -0.28125,-1.59375c0.08203,-0.67969 0.34375,-1.42969 0.65625,-1.96875z"></path></g></g></g></svg>