<svg width="98" height="98" viewBox="0 0 98 98" fill="none" xmlns="http://www.w3.org/2000/svg">
<g filter="url(#filter0_d_434_368)">
<rect x="5" y="1" width="88" height="88" rx="9" fill="#B3E55E" stroke="black" stroke-width="2"/>
<g clip-path="url(#clip0_434_368)">
<path d="M34.303 55.5068C33.8437 55.5068 33.4713 55.8934 33.4713 56.3702C33.4713 56.8462 33.0981 57.2335 32.6395 57.2335C32.1809 57.2335 31.8078 56.8462 31.8078 56.3702C31.8078 55.8942 32.1809 55.5068 32.6395 55.5068C33.0989 55.5068 33.4713 55.1203 33.4713 54.6435C33.4713 54.1667 33.0989 53.7802 32.6395 53.7802C31.2636 53.7802 30.1443 54.9421 30.1443 56.3702C30.1443 57.7982 31.2636 58.9602 32.6395 58.9602C34.0154 58.9602 35.1348 57.7982 35.1348 56.3702C35.1348 55.8934 34.7623 55.5068 34.303 55.5068Z" fill="black"/>
<path d="M67.5729 55.5068C67.1135 55.5068 66.7411 55.8934 66.7411 56.3702C66.7411 56.8462 66.368 57.2335 65.9094 57.2335C65.4508 57.2335 65.0776 56.8462 65.0776 56.3702C65.0776 55.8942 65.4508 55.5068 65.9094 55.5068C66.3687 55.5068 66.7411 55.1203 66.7411 54.6435C66.7411 54.1667 66.3687 53.7802 65.9094 53.7802C64.5334 53.7802 63.4141 54.9421 63.4141 56.3702C63.4141 57.7982 64.5334 58.9602 65.9094 58.9602C67.2853 58.9602 68.4046 57.7982 68.4046 56.3702C68.4046 55.8934 68.0322 55.5068 67.5729 55.5068Z" fill="black"/>
<path d="M75.8903 44.2835C75.8903 44.0428 75.7951 43.8252 75.642 43.6686C75.2863 42.6483 74.5657 41.7915 73.5914 41.2858C73.5654 41.2724 73.5389 41.2604 73.5117 41.2498L70.7629 40.1787L69.0884 33.5748C69.086 33.5653 69.0835 33.5558 69.0807 33.5464C68.549 31.7065 66.9482 30.4702 65.0974 30.4702H59.2554V28.7436C59.2554 27.7916 58.5091 27.0169 57.5919 27.0169H24.3221C23.4049 27.0169 22.6586 27.7916 22.6586 28.7436V52.9168C22.6586 53.8689 23.4049 54.6435 24.3221 54.6435H27.0607C26.9801 54.9234 26.9185 55.2117 26.8776 55.5068H23.4903C23.031 55.5068 22.6586 55.8934 22.6586 56.3702C22.6586 56.8469 23.031 57.2335 23.4903 57.2335H26.8777C27.2827 60.1582 29.7117 62.4135 32.6395 62.4135C35.5674 62.4135 37.9965 60.1582 38.4013 57.2335H40.1252C40.1252 58.6616 41.2445 59.8235 42.6205 59.8235H47.6109C48.9868 59.8235 50.1062 58.6616 50.1062 57.2335H60.1475C60.5525 60.1582 62.9815 62.4135 65.9093 62.4135C68.8372 62.4135 71.2663 60.1582 71.6711 57.2335H75.0585C75.5179 57.2335 75.8903 56.8469 75.8903 56.3702C75.8903 55.8934 75.5179 55.5068 75.0585 55.5068H71.6711C71.6303 55.2117 71.5686 54.9234 71.4881 54.6435H74.2268C75.144 54.6435 75.8903 53.8689 75.8903 52.9168V45.1469C75.8903 44.944 75.8767 44.7438 75.8505 44.5471C75.8761 44.464 75.8903 44.3755 75.8903 44.2835ZM74.2268 49.4635H73.395V48.6002H74.2268V49.4635ZM73.5925 43.4202H59.2554V41.6935H69.9172L72.8835 42.8493C73.1567 42.9969 73.3948 43.1915 73.5925 43.4202ZM65.0974 32.1969C66.2035 32.1969 67.1608 32.9328 67.4836 34.0295L68.9891 39.9669H59.2554V32.1969H65.0974ZM27.6491 52.9168H24.3221V48.6002H50.1066C50.5659 48.6002 50.9383 48.2136 50.9383 47.7369C50.9383 47.2601 50.5659 46.8735 50.1066 46.8735H24.3221V28.7436H57.5919V52.9168H47.6109H42.6205H37.6302C37.5615 52.9168 37.495 52.9265 37.4311 52.9427C36.3798 51.3639 34.6245 50.3269 32.6395 50.3269C30.6546 50.3269 28.8994 51.3639 27.8479 52.9427C27.7841 52.9265 27.7178 52.9168 27.6491 52.9168ZM32.6395 60.6868C30.3464 60.6868 28.4808 58.7504 28.4808 56.3702C28.4808 53.99 30.3464 52.0535 32.6395 52.0535C34.9326 52.0535 36.7982 53.99 36.7982 56.3702C36.7982 58.7504 34.9326 60.6868 32.6395 60.6868ZM38.4013 55.5068C38.3605 55.2117 38.2988 54.9234 38.2182 54.6435H40.2683C40.176 54.9137 40.1252 55.2042 40.1252 55.5068H38.4013ZM48.4427 57.2335C48.4427 57.7095 48.0695 58.0968 47.6109 58.0968H42.6205C42.1619 58.0968 41.7887 57.7095 41.7887 57.2335V56.3722C41.7887 56.3715 41.7888 56.3708 41.7888 56.3702C41.7888 56.3695 41.7887 56.3688 41.7887 56.3681V55.5068C41.7887 55.0308 42.1619 54.6435 42.6205 54.6435H47.6109C48.0695 54.6435 48.4427 55.0308 48.4427 55.5068V57.2335ZM49.9631 54.6435H58.4236H60.3305C60.2499 54.9234 60.1883 55.2117 60.1474 55.5068H50.1062C50.1062 55.2042 50.0554 54.9137 49.9631 54.6435ZM65.9093 60.6868C63.6162 60.6868 61.7506 58.7504 61.7506 56.3702C61.7506 53.99 63.6162 52.0535 65.9093 52.0535C68.2025 52.0535 70.0681 53.99 70.0681 56.3702C70.0681 58.7504 68.2025 60.6868 65.9093 60.6868ZM70.8998 52.9168C70.8312 52.9168 70.7648 52.9265 70.7009 52.9427C69.6495 51.3639 67.8943 50.3269 65.9093 50.3269C63.9244 50.3269 62.1692 51.3639 61.1178 52.9427C61.0539 52.9265 60.9876 52.9168 60.919 52.9168H59.2555V45.1469H74.2269V46.8735H73.3951C72.4779 46.8735 71.7317 47.6482 71.7317 48.6002V49.4635C71.7317 50.4156 72.4779 51.1902 73.3951 51.1902H74.2269V52.9168H70.8998Z" fill="black"/>
<path d="M43.4522 55.5068C43.2329 55.5068 43.0187 55.5995 42.8638 55.7594C42.7089 55.9202 42.6205 56.1435 42.6205 56.3702C42.6205 56.5978 42.7089 56.8202 42.8638 56.981C43.0187 57.1417 43.2329 57.2335 43.4522 57.2335C43.6716 57.2335 43.8858 57.1417 44.0407 56.981C44.1956 56.8202 44.284 56.5967 44.284 56.3702C44.284 56.1434 44.1956 55.9202 44.0407 55.7594C43.8858 55.5995 43.6716 55.5068 43.4522 55.5068Z" fill="black"/>
<path d="M53.4336 48.6002H55.0966C55.556 48.6002 55.9284 48.2136 55.9284 47.7369C55.9284 47.2601 55.556 46.8735 55.0966 46.8735H53.4336C52.9742 46.8735 52.6018 47.2601 52.6018 47.7369C52.6018 48.2136 52.9741 48.6002 53.4336 48.6002Z" fill="black"/>
</g>
</g>
<defs>
<filter id="filter0_d_434_368" x="0" y="0" width="98" height="98" filterUnits="userSpaceOnUse" color-interpolation-filters="sRGB">
<feFlood flood-opacity="0" result="BackgroundImageFix"/>
<feColorMatrix in="SourceAlpha" type="matrix" values="0 0 0 0 0 0 0 0 0 0 0 0 0 0 0 0 0 0 127 0" result="hardAlpha"/>
<feOffset dy="4"/>
<feGaussianBlur stdDeviation="2"/>
<feComposite in2="hardAlpha" operator="out"/>
<feColorMatrix type="matrix" values="0 0 0 0 0 0 0 0 0 0 0 0 0 0 0 0 0 0 0.25 0"/>
<feBlend mode="normal" in2="BackgroundImageFix" result="effect1_dropShadow_434_368"/>
<feBlend mode="normal" in="SourceGraphic" in2="effect1_dropShadow_434_368" result="shape"/>
</filter>
<clipPath id="clip0_434_368">
<rect width="53.2317" height="55.2532" fill="white" transform="translate(22.6586 17.0886)"/>
</clipPath>
</defs>
</svg>
