<svg width="98" height="98" viewBox="0 0 98 98" fill="none" xmlns="http://www.w3.org/2000/svg">
<g filter="url(#filter0_d_434_382)">
<rect x="4" width="90" height="90" rx="10" fill="#B3E55E"/>
<rect x="5" y="1" width="88" height="88" rx="9" stroke="black" stroke-width="2"/>
</g>
<g clip-path="url(#clip0_434_382)">
<path d="M74.4388 45.8201L66.2588 31.0871C66.2588 29.2413 64.8121 27.7397 63.0338 27.7397H50.8127V23.5783C51.6552 22.9194 52.201 21.8727 52.201 20.696C52.201 18.7069 50.6419 17.0886 48.7257 17.0886C46.8094 17.0886 45.2502 18.7069 45.2502 20.696C45.2502 21.8724 45.7957 22.9188 46.6377 23.5777V27.7397H34.4174C32.6392 27.7397 31.1925 29.2413 31.1925 31.0871L23.0124 45.8201C22.8822 46.0541 22.8822 46.3426 23.0124 46.5766C23.0124 46.5768 23.0125 46.5768 23.0125 46.5769L25.7322 51.4665C25.8624 51.7006 26.103 51.8448 26.3634 51.8448H37.479C37.7394 51.8448 37.98 51.7006 38.1102 51.4665L40.8301 46.5768C40.8951 46.4597 40.9277 46.3291 40.9276 46.1985C40.9276 46.0679 40.8951 45.9372 40.8301 45.8202L33.1838 32.0732H46.6377V52.7652H46.3128C45.9103 52.7652 45.5839 53.1039 45.5839 53.5218V64.5484H35.7257C35.3232 64.5484 34.9969 64.8871 34.9969 65.3049V67.6886H34.2009C33.7983 67.6886 33.472 68.0273 33.472 68.4451V71.5853C33.472 72.0032 33.7983 72.3419 34.2009 72.3419H63.2505C63.6531 72.3419 63.9794 72.0032 63.9794 71.5853V68.4451C63.9794 68.0273 63.6531 67.6886 63.2505 67.6886H62.4545V65.3049C62.4545 64.8871 62.1281 64.5484 61.7256 64.5484H51.8673V53.5218C51.8673 53.1039 51.5409 52.7652 51.1384 52.7652H50.8127V32.0732H64.2675L56.621 45.8201C56.5559 45.9372 56.5234 46.0678 56.5234 46.1984C56.5234 46.329 56.5559 46.4597 56.621 46.5766L59.3409 51.4664C59.4711 51.7004 59.7117 51.8446 59.9721 51.8446H71.0877C71.3481 51.8446 71.5887 51.7004 71.7189 51.4664L74.4388 46.5766C74.5039 46.4595 74.5364 46.329 74.5364 46.1984C74.5364 46.0678 74.5038 45.9372 74.4388 45.8201ZM48.7257 18.6017C49.8382 18.6017 50.7432 19.5412 50.7432 20.696C50.7432 21.8508 49.8382 22.7902 48.7257 22.7902C47.6132 22.7902 46.708 21.8508 46.708 20.696C46.708 19.5412 47.613 18.6017 48.7257 18.6017ZM48.0955 24.2428C48.3 24.2819 48.5104 24.3033 48.7257 24.3033C48.9406 24.3033 49.1508 24.2819 49.355 24.2429V27.7396H48.0955V24.2428ZM34.4174 29.2529H63.0339C63.8319 29.2529 64.508 29.8048 64.7268 30.5601H32.7245C32.9432 29.8047 33.6194 29.2529 34.4174 29.2529ZM31.1335 46.955L29.856 50.3316H28.9461L30.2237 46.955H31.1335ZM24.9062 46.955H28.6575L27.3799 50.3316H26.7845L24.9062 46.955ZM37.0582 50.3316H31.4221L32.6996 46.955H38.9364L37.0582 50.3316ZM24.9062 45.4418L31.9214 32.8298L38.9366 45.4418H24.9062ZM36.4546 66.0615H54.099L53.4835 67.6886H36.4546V66.0615ZM55.0496 67.6886L55.6651 66.0615H56.3037L55.6882 67.6886H55.0496ZM34.9298 69.2017H35.7257H39.8473L39.2318 70.8288H34.9298V69.2017ZM62.5215 70.8287H40.7979L41.4134 69.2016H61.7256H62.5216V70.8287H62.5215ZM60.9967 67.6886H57.2544L57.8699 66.0615H60.9966V67.6886H60.9967ZM47.0417 64.5484V54.2783H50.4096V64.5484H47.0417ZM49.355 52.7652H48.0955V32.0732H49.355V52.7652ZM65.5299 32.8298L72.545 45.4418H58.5148L65.5299 32.8298ZM58.5148 46.955H68.0942L66.8165 50.3316H60.3929L58.5148 46.955ZM70.6668 50.3316H68.3826L69.6603 46.955H72.545L70.6668 50.3316Z" fill="black"/>
<path d="M48.726 21.4525C48.9178 21.4525 49.105 21.3722 49.2407 21.2313C49.3764 21.0893 49.4549 20.8949 49.4549 20.6959C49.4549 20.4969 49.3764 20.3025 49.2407 20.1605C49.105 20.0197 48.9178 19.9394 48.726 19.9394C48.5343 19.9394 48.3459 20.0197 48.2102 20.1605C48.0745 20.3013 47.9971 20.4969 47.9971 20.6959C47.9971 20.8949 48.0745 21.0905 48.2102 21.2313C48.3459 21.3722 48.5343 21.4525 48.726 21.4525Z" fill="black"/>
</g>
<defs>
<filter id="filter0_d_434_382" x="0" y="0" width="98" height="98" filterUnits="userSpaceOnUse" color-interpolation-filters="sRGB">
<feFlood flood-opacity="0" result="BackgroundImageFix"/>
<feColorMatrix in="SourceAlpha" type="matrix" values="0 0 0 0 0 0 0 0 0 0 0 0 0 0 0 0 0 0 127 0" result="hardAlpha"/>
<feOffset dy="4"/>
<feGaussianBlur stdDeviation="2"/>
<feComposite in2="hardAlpha" operator="out"/>
<feColorMatrix type="matrix" values="0 0 0 0 0 0 0 0 0 0 0 0 0 0 0 0 0 0 0.25 0"/>
<feBlend mode="normal" in2="BackgroundImageFix" result="effect1_dropShadow_434_382"/>
<feBlend mode="normal" in="SourceGraphic" in2="effect1_dropShadow_434_382" result="shape"/>
</filter>
<clipPath id="clip0_434_382">
<rect width="53.2317" height="55.2532" fill="white" transform="translate(22.1097 17.0886)"/>
</clipPath>
</defs>
</svg>
